After the death of her father, Hannah becomes concerned with the strange behavior of her mother. As her mother's troubled childhood is revealed, Hannah realizes how little she ever knew...
 
http://www.imdb.com/title/tt0298131/

Audio: German-English  Subs: Dutch, English.


In februari 1943 gingen de Duitsers ertoe over om ook de Joodse partners uit gemengde huwelijken op te pakken. Deze werden ondergebracht in een pand aan de Rosenstrasse. Een dagelijks groeiende groep echtgenoten verzamelde zich voor dat pand om te proberen hun mannen vrij te krijgen. Ruim vijftig jaar later ontmoet een jonge journaliste uit New York de vrouw die het leven van haar moeder heeft gered...
 
http://www.moviemeter.nl/film/12595

Audio: Duits-Engels    Subs: Engels, Nederlands.

General
Complete name                    : Rosenstrasse-AC3-XviD-DVDRip 2003.avi
Format                           : AVI
Format/Info                      : Audio Video Interleave
File size                        : 1.75 GiB
Duration                         : 2h 10mn
Overall bit rate                 : 1 930 Kbps
Writing application              : VirtualDubMod 1.5.4.1 (build 2178/release)
Writing library                  : VirtualDubMod build 2178/release
Source                           : Pal Retail DVD9

Video
ID                               : 0
Format                           : MPEG-4 Visual
Format profile                   : Simple@L3
Format settings, BVOP            : No
Format settings, QPel            : No
Format settings, GMC             : No warppoints
Format settings, Matrix          : Default (H.263)
Codec ID                         : XVID
Codec ID/Hint                    : XviD
Duration                         : 2h 10mn
Bit rate                         : 1 472 Kbps
Width                            : 720 pixels
Height                           : 304 pixels
Display aspect ratio             : 2.35:1
Frame rate                       : 25.000 fps
Resolution                       : 8 bits
Colorimetry                      : 4:2:0
Scan type                        : Progressive
Bits/(Pixel*Frame)               : 0.269
Stream size                      : 1.34 GiB (76%)
Writing library                  : XviD 1.1.2 (UTC 2006-11-01)

Audio
ID                               : 1
Format                           : AC-3
Format/Info                      : Audio Coding 3
Codec ID                         : 2000
Duration                         : 2h 10mn
Bit rate mode                    : Constant
Bit rate                         : 448 Kbps
Channel(s)                       : 6 channels
Channel positions                : Front: L C R, Surround: L R, LFE
Sampling rate                    : 48.0 KHz
Stream size                      : 417 MiB (23%)
Alignment                        : Split accross interleaves
Interleave, duration             : 40 ms (1.00 video frame)
Interleave, preload duration     : 500 ms

Enjoy...

TBS.